<?xml version="1.0" standalone="no"?>
<!DOCTYPE svg PUBLIC "-//W3C//DTD SVG 20010904//EN"
 "http://www.w3.org/TR/2001/REC-SVG-20010904/DTD/svg10.dtd">
<svg version="1.0" xmlns="http://www.w3.org/2000/svg"
 width="1200.000000pt" height="476.000000pt" viewBox="0 0 1200.000000 476.000000"
 preserveAspectRatio="xMidYMid meet">
<metadata>
Created by potrace 1.16, written by Peter Selinger 2001-2019
</metadata>
<g transform="translate(0.000000,476.000000) scale(0.100000,-0.100000)"
fill="#000000" stroke="none">
<path d="M0 2500 l0 -2260 575 0 575 0 0 774 0 774 493 5 c503 5 569 9 752 50
l99 22 363 1115 c199 613 362 1124 363 1134 0 11 -19 44 -42 75 -202 272 -443
429 -788 516 -211 54 -248 55 -1361 55 l-1029 0 0 -2260z m1740 1369 c248 -30
386 -111 473 -277 50 -94 69 -183 68 -317 -1 -194 -54 -339 -165 -443 -63 -60
-126 -92 -242 -124 -72 -19 -109 -22 -401 -26 l-323 -4 0 601 0 601 253 0
c139 0 291 -5 337 -11z"/>
<path d="M4835 3323 c-257 -791 -471 -1442 -475 -1446 -4 -5 -152 279 -328
630 -177 351 -327 646 -334 656 -11 15 -54 -107 -317 -918 -186 -573 -301
-942 -296 -953 3 -9 142 -250 308 -535 l302 -517 597 0 597 0 206 628 c114
345 306 930 428 1301 l222 673 406 -1298 407 -1299 600 -3 599 -2 127 312 c69
172 479 1188 910 2258 l785 1945 -607 3 c-333 1 -609 -1 -612 -5 -4 -5 -283
-655 -620 -1446 -337 -790 -615 -1435 -618 -1433 -2 3 -201 652 -441 1443
l-436 1438 -471 3 -470 2 -469 -1437z"/>
<path d="M9987 3766 l-298 -753 231 -647 c127 -357 234 -654 237 -662 4 -12
-70 -14 -493 -14 l-499 0 -172 -438 c-95 -240 -173 -440 -173 -444 0 -5 365
-9 812 -10 l811 -3 142 -395 142 -395 633 -3 c599 -2 632 -1 628 15 -11 39
-1690 4488 -1696 4495 -4 4 -141 -332 -305 -746z"/>
</g>
</svg>
